<svg xmlns="http://www.w3.org/2000/svg" viewBox="0 0 800 600" width="800" height="600"><defs><filter id="soft" x="-50%" y="-50%" width="200%" height="200%"><feGaussianBlur stdDeviation="14"/></filter><filter id="soft2" x="-50%" y="-50%" width="200%" height="200%"><feGaussianBlur stdDeviation="5"/></filter><filter id="drop" x="-30%" y="-30%" width="160%" height="170%"><feDropShadow dx="0" dy="14" stdDeviation="14" flood-color="#6b5a92" flood-opacity=".22"/></filter><linearGradient id="rgbline" x1="0" y1="0" x2="1" y2="0"><stop offset="0" stop-color="#b69ce8"/><stop offset=".5" stop-color="#2cc8ba"/><stop offset="1" stop-color="#d4a93c"/></linearGradient><linearGradient id="goldg" x1="0" y1="0" x2="1" y2="1"><stop offset="0" stop-color="#f7e6ae"/><stop offset="1" stop-color="#a67c1f"/></linearGradient><linearGradient id="silverg" x1="0" y1="0" x2="0" y2="1"><stop offset="0" stop-color="#ffffff"/><stop offset="1" stop-color="#dcd8e8"/></linearGradient></defs><defs><linearGradient id="bgturq" x1="0" y1="0" x2="1" y2="1"><stop offset="0" stop-color="#f5fffd"/><stop offset="1" stop-color="#cdeff0"/></linearGradient></defs><rect width="800" height="600" fill="url(#bgturq)"/><circle cx="624.0" cy="168.00000000000003" r="252.0" fill="#2cc8ba" opacity=".13"/><circle cx="144.0" cy="510.0" r="216.0" fill="#b69ce8" opacity=".12"/><circle cx="400.0" cy="300.0" r="264.0" fill="none" stroke="#d4a93c" stroke-width="1.5" opacity=".35" stroke-dasharray="2 10"/><circle cx="215" cy="196" r="1.8" fill="#2cc8ba" opacity=".8"/><circle cx="639" cy="114" r="3.2" fill="#ffffff" opacity=".8"/><circle cx="567" cy="211" r="2.8" fill="#b69ce8" opacity=".8"/><circle cx="318" cy="122" r="2.9" fill="#d4a93c" opacity=".8"/><circle cx="654" cy="39" r="2.0" fill="#ffffff" opacity=".8"/><circle cx="527" cy="341" r="2.2" fill="#b69ce8" opacity=".8"/><circle cx="304" cy="289" r="3.4" fill="#2cc8ba" opacity=".8"/><circle cx="590" cy="40" r="3.4" fill="#2cc8ba" opacity=".8"/><circle cx="378" cy="329" r="3.5" fill="#d4a93c" opacity=".8"/><g transform="translate(420,230) rotate(0) scale(0.85)" filter="url(#drop)"><ellipse cx="0" cy="140.0" rx="330.0" ry="60" fill="url(#rgbline)" opacity=".35" filter="url(#soft)"/><path d="M-300.0,-120.0 Q0,-98.0 300.0,-120.0 L300.0,120.0 Q0,142.0 -300.0,120.0Z" fill="#ffffff" stroke="#b8b2cc" stroke-width="2"/><clipPath id="tm1cl"><path d="M-288.0,-108.0 Q0,-88.0 288.0,-108.0 L288.0,106.0 Q0,130.0 -288.0,106.0Z"/></clipPath><g clip-path="url(#tm1cl)"><defs><linearGradient id="tm1sky" x1="0" y1="0" x2="0" y2="1"><stop offset="0" stop-color="#e8f9ff"/><stop offset="1" stop-color="#d9ccf7"/></linearGradient></defs><rect x="-300.0" y="-120.0" width="600" height="270" fill="url(#tm1sky)"/><path d="M-300.0,-25.5 C-150.0,-93.0 30.0,28.5 300.0,-52.5 L300.0,150.0 L-300.0,150.0Z" fill="#2cc8ba" opacity=".45"/><path d="M-300.0,17.69999999999999 C-150.0,-49.80000000000001 30.0,71.69999999999999 300.0,-9.300000000000011 L300.0,150.0 L-300.0,150.0Z" fill="#b69ce8" opacity=".45"/><path d="M-300.0,60.89999999999998 C-150.0,-6.600000000000023 30.0,114.89999999999998 300.0,33.89999999999998 L300.0,150.0 L-300.0,150.0Z" fill="#d4a93c" opacity=".45"/></g><rect x="-6" y="110.0" width="12" height="6" rx="3" fill="#d4a93c"/><path d="M-26,124.0 L26,124.0 L34,190.0 L-34,190.0Z" fill="url(#silverg)" stroke="#b8b2cc"/><ellipse cx="0" cy="194.0" rx="110" ry="14" fill="url(#silverg)" stroke="#b8b2cc"/></g><g transform="translate(150,330) rotate(-6) scale(0.45)" filter="url(#drop)"><ellipse cx="0" cy="145.0" rx="242.00000000000003" ry="60" fill="url(#rgbline)" opacity=".35" filter="url(#soft)"/><rect x="-220.0" y="-125.0" width="440" height="250" rx="12" fill="#ffffff" stroke="#b8b2cc" stroke-width="2"/><clipPath id="tm2cl"><rect x="-208.0" y="-113.0" width="416" height="220" rx="4"/></clipPath><g clip-path="url(#tm2cl)"><defs><linearGradient id="tm2sky" x1="0" y1="0" x2="1" y2="1"><stop offset="0" stop-color="#fff8e3"/><stop offset="1" stop-color="#f1d98f"/></linearGradient></defs><rect x="-220.0" y="-125.0" width="440" height="280" fill="url(#tm2sky)"/><circle cx="-88.0" cy="15.0" r="84.0" fill="#fff" opacity=".7"/><circle cx="52.80000000000001" cy="-7.400000000000006" r="61.6" fill="#f2c4d4" opacity=".8"/><circle cx="123.19999999999999" cy="59.80000000000001" r="44.800000000000004" fill="#c8f4ef"/></g><rect x="-6" y="115.0" width="12" height="6" rx="3" fill="#d4a93c"/><path d="M-26,129.0 L26,129.0 L34,195.0 L-34,195.0Z" fill="url(#silverg)" stroke="#b8b2cc"/><ellipse cx="0" cy="199.0" rx="110" ry="14" fill="url(#silverg)" stroke="#b8b2cc"/></g></svg>