<svg xmlns="http://www.w3.org/2000/svg" viewBox="0 0 800 700" width="800" height="700"><defs><filter id="soft" x="-50%" y="-50%" width="200%" height="200%"><feGaussianBlur stdDeviation="14"/></filter><filter id="soft2" x="-50%" y="-50%" width="200%" height="200%"><feGaussianBlur stdDeviation="5"/></filter><filter id="drop" x="-30%" y="-30%" width="160%" height="170%"><feDropShadow dx="0" dy="14" stdDeviation="14" flood-color="#6b5a92" flood-opacity=".22"/></filter><linearGradient id="rgbline" x1="0" y1="0" x2="1" y2="0"><stop offset="0" stop-color="#b69ce8"/><stop offset=".5" stop-color="#2cc8ba"/><stop offset="1" stop-color="#d4a93c"/></linearGradient><linearGradient id="goldg" x1="0" y1="0" x2="1" y2="1"><stop offset="0" stop-color="#f7e6ae"/><stop offset="1" stop-color="#a67c1f"/></linearGradient><linearGradient id="silverg" x1="0" y1="0" x2="0" y2="1"><stop offset="0" stop-color="#ffffff"/><stop offset="1" stop-color="#dcd8e8"/></linearGradient></defs><defs><linearGradient id="bgturq" x1="0" y1="0" x2="1" y2="1"><stop offset="0" stop-color="#f5fffd"/><stop offset="1" stop-color="#cdeff0"/></linearGradient></defs><rect width="800" height="700" fill="url(#bgturq)"/><circle cx="624.0" cy="196.00000000000003" r="294.0" fill="#2cc8ba" opacity=".13"/><circle cx="144.0" cy="595.0" r="252.0" fill="#b69ce8" opacity=".12"/><circle cx="400.0" cy="350.0" r="308.0" fill="none" stroke="#d4a93c" stroke-width="1.5" opacity=".35" stroke-dasharray="2 10"/><circle cx="695" cy="148" r="2.4" fill="#2cc8ba" opacity=".8"/><circle cx="272" cy="76" r="3.1" fill="#2cc8ba" opacity=".8"/><circle cx="555" cy="193" r="2.3" fill="#ffffff" opacity=".8"/><circle cx="507" cy="229" r="3.0" fill="#ffffff" opacity=".8"/><circle cx="602" cy="207" r="1.7" fill="#d4a93c" opacity=".8"/><circle cx="393" cy="144" r="1.8" fill="#b69ce8" opacity=".8"/><circle cx="365" cy="331" r="1.7" fill="#d4a93c" opacity=".8"/><circle cx="136" cy="393" r="2.0" fill="#d4a93c" opacity=".8"/><circle cx="614" cy="236" r="3.0" fill="#b69ce8" opacity=".8"/><g transform="translate(470,260) rotate(0) scale(1.0)" filter="url(#drop)"><ellipse cx="0" cy="170.0" rx="308.0" ry="60" fill="url(#rgbline)" opacity=".35" filter="url(#soft)"/><path d="M-280.0,-150.0 Q0,-128.0 280.0,-150.0 L280.0,150.0 Q0,172.0 -280.0,150.0Z" fill="#ffffff" stroke="#b8b2cc" stroke-width="2"/><clipPath id="pmcl"><path d="M-268.0,-138.0 Q0,-118.0 268.0,-138.0 L268.0,136.0 Q0,160.0 -268.0,136.0Z"/></clipPath><g clip-path="url(#pmcl)"><defs><linearGradient id="pmsky" x1="0" y1="0" x2="0" y2="1"><stop offset="0" stop-color="#c8b6f2"/><stop offset="1" stop-color="#f9d9b0"/></linearGradient></defs><rect x="-280.0" y="-150.0" width="560" height="330" fill="url(#pmsky)"/><circle cx="100.80000000000001" cy="1.8000000000000114" r="59.4" fill="#fff4cf"/><polygon points="-280.0,180.0 -140.0,-1.5 -11.199999999999989,180.0 " fill="#2cc8ba" opacity=".85"/><polygon points="-112.0,180.0 67.19999999999999,31.50000000000003 280.0,180.0 " fill="#12978b" opacity=".8"/><polygon points="28.0,180.0 196.0,54.599999999999994 280.0,114.0 280.0,180.0" fill="#7d62c4" opacity=".6"/></g><rect x="-6" y="140.0" width="12" height="6" rx="3" fill="#d4a93c"/><path d="M-26,154.0 L26,154.0 L34,220.0 L-34,220.0Z" fill="url(#silverg)" stroke="#b8b2cc"/><ellipse cx="0" cy="224.0" rx="110" ry="14" fill="url(#silverg)" stroke="#b8b2cc"/></g></svg>