<svg xmlns="http://www.w3.org/2000/svg" viewBox="0 0 800 600" width="800" height="600"><defs><filter id="soft" x="-50%" y="-50%" width="200%" height="200%"><feGaussianBlur stdDeviation="14"/></filter><filter id="soft2" x="-50%" y="-50%" width="200%" height="200%"><feGaussianBlur stdDeviation="5"/></filter><filter id="drop" x="-30%" y="-30%" width="160%" height="170%"><feDropShadow dx="0" dy="14" stdDeviation="14" flood-color="#6b5a92" flood-opacity=".22"/></filter><linearGradient id="rgbline" x1="0" y1="0" x2="1" y2="0"><stop offset="0" stop-color="#b69ce8"/><stop offset=".5" stop-color="#2cc8ba"/><stop offset="1" stop-color="#d4a93c"/></linearGradient><linearGradient id="goldg" x1="0" y1="0" x2="1" y2="1"><stop offset="0" stop-color="#f7e6ae"/><stop offset="1" stop-color="#a67c1f"/></linearGradient><linearGradient id="silverg" x1="0" y1="0" x2="0" y2="1"><stop offset="0" stop-color="#ffffff"/><stop offset="1" stop-color="#dcd8e8"/></linearGradient></defs><defs><linearGradient id="bgpearl" x1="0" y1="0" x2="1" y2="1"><stop offset="0" stop-color="#ffffff"/><stop offset="1" stop-color="#ece7f5"/></linearGradient></defs><rect width="800" height="600" fill="url(#bgpearl)"/><circle cx="624.0" cy="168.00000000000003" r="252.0" fill="#b69ce8" opacity=".13"/><circle cx="144.0" cy="510.0" r="216.0" fill="#2cc8ba" opacity=".12"/><circle cx="400.0" cy="300.0" r="264.0" fill="none" stroke="#d4a93c" stroke-width="1.5" opacity=".35" stroke-dasharray="2 10"/><circle cx="416" cy="296" r="3.4" fill="#b69ce8" opacity=".8"/><circle cx="166" cy="263" r="2.6" fill="#b69ce8" opacity=".8"/><circle cx="119" cy="39" r="2.3" fill="#ffffff" opacity=".8"/><circle cx="222" cy="196" r="2.1" fill="#ffffff" opacity=".8"/><circle cx="139" cy="212" r="1.8" fill="#2cc8ba" opacity=".8"/><circle cx="149" cy="263" r="2.6" fill="#2cc8ba" opacity=".8"/><circle cx="278" cy="71" r="2.9" fill="#d4a93c" opacity=".8"/><circle cx="263" cy="57" r="3.4" fill="#ffffff" opacity=".8"/><circle cx="501" cy="228" r="2.9" fill="#ffffff" opacity=".8"/><g transform="translate(420,300) rotate(0) scale(1.05)" filter="url(#drop)"><defs><linearGradient id="p17n" x1="0" y1="0" x2="1" y2="1"><stop offset="0" stop-color="#efe6fd"/><stop offset="1" stop-color="#d7f4f1"/></linearGradient><radialGradient id="p17a"><stop offset="0" stop-color="#b69ce8"/><stop offset="1" stop-color="#b69ce8" stop-opacity="0"/></radialGradient><radialGradient id="p17b"><stop offset="0" stop-color="#2cc8ba"/><stop offset="1" stop-color="#2cc8ba" stop-opacity="0"/></radialGradient><radialGradient id="p17c"><stop offset="0" stop-color="#f7e6ae"/><stop offset="1" stop-color="#f7e6ae" stop-opacity="0"/></radialGradient></defs><g transform="skewX(-18) scale(1,.62)"><rect x="-300" y="-190" width="600" height="380" rx="36" fill="url(#rgbline)" filter="url(#soft)" opacity=".7"/><rect x="-300" y="-190" width="600" height="380" rx="36" fill="url(#p17n)" stroke="url(#rgbline)" stroke-width="10"/><circle cx="-120" cy="-40" r="170" fill="url(#p17a)" opacity=".75"/><circle cx="140" cy="60" r="150" fill="url(#p17b)" opacity=".6"/><circle cx="60" cy="-110" r="100" fill="url(#p17c)" opacity=".9"/><circle cx="-99" cy="-119" r="2.3" fill="#fff"/><circle cx="-239" cy="12" r="1.7" fill="#fff"/><circle cx="-248" cy="3" r="1.1" fill="#fff"/><circle cx="-37" cy="-146" r="1.2" fill="#fff"/><circle cx="-42" cy="111" r="1.2" fill="#fff"/><circle cx="-155" cy="43" r="2.9" fill="#fff"/><circle cx="43" cy="-35" r="3.0" fill="#fff"/><circle cx="-254" cy="122" r="1.6" fill="#fff"/><circle cx="-199" cy="-130" r="1.6" fill="#fff"/><circle cx="177" cy="-109" r="2.2" fill="#fff"/><circle cx="78" cy="-43" r="2.1" fill="#fff"/><circle cx="-245" cy="-150" r="1.4" fill="#fff"/><circle cx="101" cy="-25" r="1.6" fill="#fff"/><circle cx="48" cy="-16" r="1.6" fill="#fff"/><circle cx="165" cy="68" r="1.5" fill="#fff"/><circle cx="42" cy="9" r="2.8" fill="#fff"/><circle cx="128" cy="-72" r="3.0" fill="#fff"/><circle cx="-214" cy="-28" r="2.5" fill="#fff"/><circle cx="-195" cy="-4" r="1.1" fill="#fff"/><circle cx="94" cy="90" r="2.1" fill="#fff"/><circle cx="210" cy="-63" r="2.4" fill="#fff"/><circle cx="53" cy="27" r="1.9" fill="#fff"/><circle cx="190" cy="151" r="1.9" fill="#fff"/><circle cx="92" cy="-149" r="2.4" fill="#fff"/><circle cx="82" cy="168" r="2.6" fill="#fff"/><circle cx="-121" cy="-39" r="2.3" fill="#fff"/><circle cx="-267" cy="-13" r="1.3" fill="#fff"/><circle cx="-214" cy="-150" r="2.5" fill="#fff"/><circle cx="-208" cy="-86" r="1.8" fill="#fff"/><circle cx="208" cy="-143" r="1.9" fill="#fff"/><circle cx="28" cy="130" r="2.6" fill="#fff"/><circle cx="204" cy="-75" r="1.8" fill="#fff"/><circle cx="-79" cy="131" r="2.9" fill="#fff"/><circle cx="-195" cy="-110" r="1.5" fill="#fff"/><circle cx="-149" cy="-5" r="2.2" fill="#fff"/><circle cx="-133" cy="-169" r="1.8" fill="#fff"/><circle cx="-73" cy="23" r="2.9" fill="#fff"/><circle cx="107" cy="5" r="2.2" fill="#fff"/><circle cx="99" cy="-152" r="2.8" fill="#fff"/><circle cx="157" cy="127" r="2.6" fill="#fff"/></g></g></svg>