<svg xmlns="http://www.w3.org/2000/svg" viewBox="0 0 800 600" width="800" height="600"><defs><filter id="soft" x="-50%" y="-50%" width="200%" height="200%"><feGaussianBlur stdDeviation="14"/></filter><filter id="soft2" x="-50%" y="-50%" width="200%" height="200%"><feGaussianBlur stdDeviation="5"/></filter><filter id="drop" x="-30%" y="-30%" width="160%" height="170%"><feDropShadow dx="0" dy="14" stdDeviation="14" flood-color="#6b5a92" flood-opacity=".22"/></filter><linearGradient id="rgbline" x1="0" y1="0" x2="1" y2="0"><stop offset="0" stop-color="#b69ce8"/><stop offset=".5" stop-color="#2cc8ba"/><stop offset="1" stop-color="#d4a93c"/></linearGradient><linearGradient id="goldg" x1="0" y1="0" x2="1" y2="1"><stop offset="0" stop-color="#f7e6ae"/><stop offset="1" stop-color="#a67c1f"/></linearGradient><linearGradient id="silverg" x1="0" y1="0" x2="0" y2="1"><stop offset="0" stop-color="#ffffff"/><stop offset="1" stop-color="#dcd8e8"/></linearGradient></defs><defs><linearGradient id="bgrose" x1="0" y1="0" x2="1" y2="1"><stop offset="0" stop-color="#fff8fb"/><stop offset="1" stop-color="#f3dce8"/></linearGradient></defs><rect width="800" height="600" fill="url(#bgrose)"/><circle cx="624.0" cy="168.00000000000003" r="252.0" fill="#d98aa6" opacity=".13"/><circle cx="144.0" cy="510.0" r="216.0" fill="#d4a93c" opacity=".12"/><circle cx="400.0" cy="300.0" r="264.0" fill="none" stroke="#d4a93c" stroke-width="1.5" opacity=".35" stroke-dasharray="2 10"/><circle cx="366" cy="215" r="3.3" fill="#ffffff" opacity=".8"/><circle cx="365" cy="312" r="1.9" fill="#ffffff" opacity=".8"/><circle cx="494" cy="292" r="1.7" fill="#b69ce8" opacity=".8"/><circle cx="142" cy="208" r="3.3" fill="#d4a93c" opacity=".8"/><circle cx="469" cy="161" r="2.4" fill="#2cc8ba" opacity=".8"/><circle cx="489" cy="304" r="1.6" fill="#d4a93c" opacity=".8"/><circle cx="177" cy="110" r="1.6" fill="#ffffff" opacity=".8"/><circle cx="275" cy="225" r="1.9" fill="#2cc8ba" opacity=".8"/><circle cx="501" cy="195" r="2.8" fill="#ffffff" opacity=".8"/><g transform="translate(400,320) rotate(0) scale(1.15)" filter="url(#drop)"><defs><linearGradient id="p11b" x1="0" y1="0" x2="0" y2="1"><stop offset="0" stop-color="#f7e6ae"/><stop offset="1" stop-color="#e6c989"/></linearGradient></defs><ellipse cx="0" cy="150.0" rx="210.8" ry="50" fill="url(#rgbline)" opacity=".3" filter="url(#soft)"/><rect x="-170.0" y="-150.0" width="340" height="220" rx="14" fill="url(#p11b)" stroke="#b8b2cc" stroke-width="2"/><clipPath id="p11cl"><rect x="-158.0" y="-138.0" width="316" height="196" rx="6"/></clipPath><g clip-path="url(#p11cl)"><defs><linearGradient id="p11sky" x1="0" y1="0" x2="1" y2="1"><stop offset="0" stop-color="#fdf2f7"/><stop offset="1" stop-color="#e5f7f5"/></linearGradient></defs><rect x="-158.0" y="-138.0" width="316" height="196" fill="url(#p11sky)"/><rect x="-132.72" y="-110.56" width="56.879999999999995" height="141.12" rx="6" fill="#fff" opacity=".85"/><rect x="-56.879999999999995" y="-110.56" width="189.6" height="90.16000000000001" rx="6" fill="#b69ce8" opacity=".55"/><rect x="-56.879999999999995" y="-8.639999999999986" width="88.48" height="39.2" rx="6" fill="#2cc8ba" opacity=".6"/><rect x="44.24000000000001" y="-8.639999999999986" width="88.48" height="39.2" rx="6" fill="#d4a93c" opacity=".6"/></g><circle cx="0" cy="-143.0" r="2.5" fill="#8f88a6"/><path d="M-170.0,70.0 L170.0,70.0 L228.0,140.0 L-228.0,140.0Z" fill="url(#p11b)" stroke="#b8b2cc" stroke-width="2"/><line x1="-148.0" y1="78.0" x2="148.0" y2="78.0" stroke="#b8b2cc" stroke-width="7" stroke-dasharray="11 4" opacity=".75"/><line x1="-162.0" y1="91.0" x2="162.0" y2="91.0" stroke="#b8b2cc" stroke-width="7" stroke-dasharray="11 4" opacity=".75"/><line x1="-176.0" y1="104.0" x2="176.0" y2="104.0" stroke="#b8b2cc" stroke-width="7" stroke-dasharray="11 4" opacity=".75"/><line x1="-190.0" y1="117.0" x2="190.0" y2="117.0" stroke="#b8b2cc" stroke-width="7" stroke-dasharray="11 4" opacity=".75"/><rect x="-44" y="122.0" width="88" height="12" rx="4" fill="#dcd8e8"/><path d="M-228.0,140.0 L228.0,140.0 L220.0,148.0 L-220.0,148.0Z" fill="#d4a93c"/></g></svg>